<?xml version="1.0" encoding="UTF-8"?>
<svg id="Black" xmlns="http://www.w3.org/2000/svg" viewBox="0 0 1000 1000">
  <defs>
    <style>
      .cls-1 {
        fill: #013d5a;
      }
    </style>
  </defs>
  <polyline class="cls-1" points="10.55 758.44 28.9 799.12 73.58 799.12 96.71 773.59 96.71 724.93 170.11 560.58 97.51 560.58 10.55 753.65"/>
  <polygon class="cls-1" points="148.57 799.12 951.95 799.12 989.45 749.66 989.45 735.3 980.67 724.13 123.84 724.13 123.84 773.59 148.57 799.12"/>
  <polygon class="cls-1" points="316.11 560.58 456.52 560.58 812.34 698.6 644 698.6 316.11 581.33 316.11 560.58"/>
  <polygon class="cls-1" points="97.51 538.61 97.51 240.67 141.96 200.88 741.9 200.88 752 216.83 712.11 276.4 173.87 276.4 173.87 463.62 757.32 463.62 804.13 538.61 97.51 538.61"/>
  <polygon class="cls-1" points="726.47 288.1 765.3 227.47 780.72 227.47 973.79 688.06 968.47 701.89 911.03 701.89 886.56 682.74 726.47 288.1"/>
  <polygon class="cls-1" points="381.43 320.55 195.01 320.55 195.01 358.31 410.95 358.31 381.43 320.55"/>
  <polygon class="cls-1" points="381.43 364.56 195.01 364.56 195.01 402.32 410.95 402.32 381.43 364.56"/>
  <polygon class="cls-1" points="381.43 408.57 195.01 408.57 195.01 446.33 410.95 446.33 381.43 408.57"/>
  <polygon class="cls-1" points="663.51 309.31 604.28 309.31 570.51 342.09 570.51 402.32 663.51 402.32 663.51 309.31"/>
  <polygon class="cls-1" points="597.9 407.24 578.48 407.24 570.51 418.94 570.51 439.68 597.9 439.68 597.9 407.24"/>
  <polygon class="cls-1" points="603.31 439.68 622.73 439.68 630.71 427.98 630.71 407.24 603.31 407.24 603.31 439.68"/>
</svg>