<?xml version="1.0" encoding="UTF-8"?>
<svg id="White" xmlns="http://www.w3.org/2000/svg" viewBox="0 0 1000 1000">
  <defs>
    <style>
      .cls-1 {
        fill: #fff;
      }
    </style>
  </defs>
  <polyline class="cls-1" points="16.64 723.12 34.99 763.8 79.66 763.8 102.8 738.27 102.8 689.61 176.2 525.26 103.6 525.26 16.64 718.33"/>
  <polygon class="cls-1" points="154.66 763.8 958.04 763.8 995.53 714.34 995.53 699.98 986.76 688.81 129.93 688.81 129.93 738.27 154.66 763.8"/>
  <polygon class="cls-1" points="322.19 525.26 462.61 525.26 818.42 663.28 650.09 663.28 322.19 546.01 322.19 525.26"/>
  <polygon class="cls-1" points="103.6 503.29 103.6 205.35 148.04 165.56 747.98 165.56 758.09 181.51 718.2 241.08 179.95 241.08 179.95 428.3 763.41 428.3 810.21 503.29 103.6 503.29"/>
  <polygon class="cls-1" points="732.56 252.78 771.38 192.15 786.81 192.15 979.88 652.74 974.56 666.57 917.12 666.57 892.65 647.43 732.56 252.78"/>
  <polygon class="cls-1" points="387.51 285.23 201.09 285.23 201.09 322.99 417.03 322.99 387.51 285.23"/>
  <polygon class="cls-1" points="387.51 329.24 201.09 329.24 201.09 367 417.03 367 387.51 329.24"/>
  <polygon class="cls-1" points="387.51 373.25 201.09 373.25 201.09 411.01 417.03 411.01 387.51 373.25"/>
  <polygon class="cls-1" points="669.6 273.99 610.36 273.99 576.59 306.77 576.59 367 669.6 367 669.6 273.99"/>
  <polygon class="cls-1" points="603.98 371.92 584.57 371.92 576.59 383.62 576.59 404.36 603.98 404.36 603.98 371.92"/>
  <polygon class="cls-1" points="609.4 404.37 628.81 404.37 636.79 392.66 636.79 371.92 609.4 371.92 609.4 404.37"/>
</svg>